PathFileType	4	(X/Y/Z)	C:\Users\Gabre\Documents\2-Sophmore\Autumn\ME 191\Nick_10292018\Nick_10292018\Upper Extremity\shoulder_flexion.trc
DataRate	CameraRate	NumFrames	NumMarkers	Units	OrigDataRate	OrigDataStartFrame	OrigNumFrames
100.00	100.00	       10	21	mm	100.00	78	       621
Frame#	Time	Back_IMU_O			Back_IMU_D			Back_IMU_X			Back_IMU_Y			C7			R.Acromion			L.Acromion			R.Elbow			R.Radius			R.Ulna			R.Hand			Humerus_IMU_O			Humerus_IMU_D			Humerus_IMU_X			Humerus_IMU_Y			Forearm_IMU_O			Forearm_IMU_D			Forearm_IMU_X			Forearm_IMU_Y			Hand_IMU_O			Scapula_IMU_O			
		X1	Y1	Z1	X2	Y2	Z2	X3	Y3	Z3	X4	Y4	Z4	X5	Y5	Z5	X6	Y6	Z6	X7	Y7	Z7	X8	Y8	Z8	X9	Y9	Z9	X10	Y10	Z10	X11	Y11	Z11	X12	Y12	Z12	X13	Y13	Z13	X14	Y14	Z14	X15	Y15	Z15	X16	Y16	Z16	X17	Y17	Z17	X18	Y18	Z18	X19	Y19	Z19	X20	Y20	Z20	X21	Y21	Z21	

78	0.770	-901.89069	446.27325	1016.03467	-929.54462	526.00812	912.29871	-904.73309	532.08881	1012.25287	-926.67273	441.53589	916.22028	-891.54388	490.16605	1032.02197	-777.08411	318.82983	984.67035	-805.96967	670.05310	986.48810	-770.77106	219.48721	621.20502	-613.77057	242.96103	390.14081	-653.46552	196.53333	384.91388	-577.56183	229.82744	286.98761	-711.64288	261.16074	824.59351	-806.45532	206.50128	761.51373	-809.52747	211.97145	828.84863	-714.24866	255.42384	758.55487	-623.05792	244.30023	464.84067	-686.73877	178.38809	399.91086	-699.93927	182.19650	445.51868	-614.42126	239.31779	418.84650	-599.19012	202.74394	328.25635	-818.55457	291.75232	993.29938	
79	0.780	-901.98492	446.25681	1016.07788	-929.77496	525.98260	912.36230	-904.81415	532.04285	1012.21954	-926.65790	441.51199	916.16400	-891.65759	490.06876	1032.01404	-776.78326	318.68265	984.62085	-806.10474	669.96124	986.57239	-770.65491	219.61966	621.19940	-612.72003	242.60670	391.06754	-653.88287	196.92458	384.92773	-577.31555	229.60284	287.37515	-711.70636	261.18076	824.58313	-806.60168	206.39223	761.58160	-809.58142	211.72725	828.88544	-714.34064	255.48631	758.73846	-623.00574	243.78371	465.16571	-687.17474	178.84554	399.84567	-700.16284	182.80823	445.40030	-614.19586	238.92485	418.96021	-598.73175	202.69919	328.55115	-818.60571	291.70248	993.33142	
80	0.790	-901.99249	446.11768	1015.93799	-929.82690	525.78687	912.31989	-905.06012	531.92682	1012.29602	-926.68140	441.43237	916.11658	-891.73810	489.97485	1032.03796	-776.97717	318.74313	984.78839	-806.19641	669.90186	986.59058	-770.44812	219.59386	621.19250	-611.84784	242.02858	391.62598	-653.89600	197.23283	384.94763	-577.05890	229.50587	287.69958	-711.70636	261.18076	824.58313	-806.83679	206.34273	761.98297	-809.48804	211.82837	829.19122	-714.45337	255.61926	758.83063	-622.04108	243.22348	465.80228	-687.76434	179.55202	399.60474	-700.56201	183.18675	445.26410	-613.85236	238.36726	419.06226	-598.74127	202.63231	328.61502	-818.61102	291.69818	993.51062	
81	0.800	-902.21613	446.04053	1015.97974	-929.86719	525.68457	912.29578	-905.24506	531.82538	1012.34467	-926.83063	441.33142	916.10846	-891.94812	489.94531	1032.10303	-776.97137	318.58563	984.89825	-806.33685	669.77887	986.60144	-770.30353	219.51402	621.37878	-611.58569	241.47716	391.68149	-654.14215	197.50749	385.17203	-576.31097	229.35635	288.01089	-711.89807	261.13611	824.91180	-806.83679	206.34273	761.98297	-809.14917	211.74287	829.26556	-714.60571	255.79323	758.96887	-621.90436	242.61197	466.29611	-687.86731	179.45732	399.71747	-700.74512	183.49199	445.21674	-613.44177	237.50314	419.52496	-598.67761	202.39473	328.93295	-818.65649	291.63681	993.56396	
82	0.810	-902.36786	445.95572	1016.03149	-929.98309	525.58661	912.26599	-905.48334	531.76270	1012.31757	-926.98859	441.25064	916.08667	-892.08118	489.93857	1032.15247	-776.85748	318.60464	985.11670	-806.47321	669.73425	986.70776	-770.24872	219.50209	621.70294	-610.85583	240.91873	392.22382	-653.94940	197.67664	385.33322	-575.44379	229.15094	288.70898	-711.81281	261.13632	824.94537	-806.38000	206.32993	762.10846	-809.11572	211.57820	829.49475	-714.60571	255.79323	758.96887	-622.67358	241.42189	466.29257	-686.79437	179.29294	400.22049	-700.99005	184.13084	445.44888	-611.87225	236.47549	420.65689	-598.53918	202.07492	329.08270	-818.74292	291.67172	993.79095	
83	0.820	-902.37085	445.81598	1015.96722	-930.08234	525.54846	912.24200	-905.53925	531.64514	1012.29333	-926.95148	441.21106	916.07800	-892.12915	489.84781	1032.15613	-776.83441	318.59723	985.16986	-806.66052	669.68768	986.78235	-769.98181	219.58208	621.98871	-609.86182	240.22723	393.06491	-653.57843	198.00822	385.55893	-573.92053	228.72786	289.63950	-711.61310	261.27582	825.03241	-806.43964	206.10631	762.24158	-808.53760	211.58920	829.65955	-714.47687	255.54025	759.10150	-621.73596	240.25543	466.98083	-686.43713	180.12109	400.20285	-701.10474	184.46707	445.50436	-610.69336	235.82144	421.67752	-598.65765	202.05714	329.21619	-818.70306	291.58481	994.05249	
84	0.830	-902.46228	445.77664	1015.97681	-930.15698	525.47791	912.22186	-905.62054	531.66248	1012.27234	-927.04883	441.10434	916.07147	-892.14764	489.84436	1032.15710	-776.64374	318.51761	985.08478	-806.68524	669.59125	986.78247	-769.64600	219.60143	622.23596	-608.08173	239.84680	394.16818	-652.88702	198.10867	385.90390	-572.67053	228.41281	290.29782	-711.30023	261.38281	825.29492	-805.88208	206.05363	762.33746	-808.12512	211.59036	829.77271	-714.64185	255.63492	759.47235	-620.71368	239.66605	467.47803	-685.44946	180.29482	400.67679	-700.20453	185.17906	445.78415	-609.12476	235.06384	422.48746	-597.80438	201.63940	329.69202	-818.73468	291.53647	994.27277	
85	0.840	-902.46613	445.73123	1015.97449	-930.36475	525.41937	912.29950	-905.62494	531.57373	1012.27704	-927.31897	441.04419	916.20386	-892.26752	489.74927	1032.09985	-776.80591	318.55099	985.25879	-806.88080	669.59625	986.77600	-768.80670	219.52629	622.63208	-606.72522	239.26703	394.91766	-651.93646	198.23651	386.36261	-571.10974	228.16266	291.32962	-711.13965	261.25513	826.12561	-805.75293	205.59702	762.61902	-808.42090	211.18460	830.06256	-714.57654	255.50674	759.53949	-619.66071	238.41177	468.71359	-685.76300	180.77512	400.82770	-699.56299	185.43471	445.98138	-608.54395	234.16821	422.90039	-595.59424	201.60594	330.61163	-818.81042	291.53973	994.37134	
86	0.850	-902.55029	445.72360	1015.98315	-930.53595	525.36725	912.33856	-905.68469	531.42719	1012.27094	-927.49615	440.93600	916.25482	-892.41461	489.67548	1032.12061	-776.80591	318.55099	985.25879	-807.02496	669.64221	986.85767	-767.57263	219.42822	622.84979	-605.03442	238.66284	395.95624	-650.68848	198.31662	386.96863	-568.97626	227.86113	292.61115	-711.93420	259.21320	826.99066	-805.55194	206.62965	762.86603	-808.10272	211.25638	830.28375	-713.66583	255.36133	760.06616	-617.43158	237.82733	469.90942	-681.83221	181.31879	401.29779	-698.49072	185.75630	446.37515	-604.36511	233.58455	425.12949	-594.67670	201.26222	331.46344	-818.71271	291.44159	994.60315	
87	0.860	-902.62860	445.74777	1016.00012	-930.74310	525.34839	912.34607	-905.84357	531.47101	1012.22430	-927.87933	440.92041	916.30249	-892.58710	489.58755	1032.09912	-776.86743	318.65884	985.53894	-807.05804	669.56689	986.89362	-766.61206	219.18303	623.36469	-602.45831	237.87721	397.29581	-649.29968	197.83597	387.83484	-566.15338	227.49265	294.01392	-710.70172	261.24512	827.14471	-804.79041	205.44562	763.28961	-807.90149	210.89951	830.51874	-713.89209	255.43236	760.34357	-614.31476	237.09297	471.38382	-681.36304	181.75729	401.92975	-696.91357	185.95641	447.15787	-602.91663	232.61093	425.61258	-592.96295	201.14420	332.33987	-818.91119	291.34848	994.90125	
